# xmcd
#
# Track frame offsets:
#	150
#	18686
#	37767
#	59708
#	79547
#	93502
#	110760
#	123516
#	145479
#	166683
#
# Disc length: 2446 seconds
#
# Revision: 1
# Processed by: cddbd v1.4PL0 Copyright (c) Steve Scherf et al.
# Submitted via: audiograbber 1.82.02
#
DISCID=84098c0a
DTITLE=E.L.I. - Canvas of Existence
DYEAR=2003
DGENRE=Grunge
TTITLE0=Unconditional Fruit
TTITLE1=Mind of Mine
TTITLE2=Soyons
TTITLE3=Daylong Reverie
TTITLE4=Fading
TTITLE5=And Then the Lizards Came
TTITLE6=Stranded
TTITLE7=Bleed
TTITLE8=Are You- Surprised?
TTITLE9=Oil-Based
EXTD=Every Love Imaginable
EXTT0=
EXTT1=
EXTT2=
EXTT3=
EXTT4=
EXTT5=
EXTT6=
EXTT7=
EXTT8=
EXTT9=
PLAYORDER=
